Coordinates
version=1
nRows=17
nColumns=36
inDegrees=yes

Units are S.I. units (second, meters, Newtons, ...)
If the header above contains a line with 'inDegrees', this indicates whether rotational values are in degrees (yes) or radians (no).

endheader
time	pelvis_tilt	pelvis_list	pelvis_rotation	pelvis_tx	pelvis_ty	pelvis_tz	hip_flexion_r	hip_adduction_r	hip_rotation_r	knee_angle_r	knee_angle_r_beta	ankle_angle_r	subtalar_angle_r	mtp_angle_r	hip_flexion_l	hip_adduction_l	hip_rotation_l	knee_angle_l	knee_angle_l_beta	ankle_angle_l	subtalar_angle_l	mtp_angle_l	lumbar_extension	lumbar_bending	lumbar_rotation	arm_flex_r	arm_add_r	arm_rot_r	elbow_flex_r	pro_sup_r	arm_flex_l	arm_add_l	arm_rot_l	elbow_flex_l	pro_sup_l
      1.10000000	    -13.77109149	      4.11232298	      3.60599610	     -0.60622968	      1.53840349	     -0.57019236	     20.45576715	     -3.87754705	     -8.36394278	     21.66773014	      0.37817323	    -32.95057870	     -3.45792750	     -5.35141458	     28.65695936	      1.19672979	     -6.10478338	     64.16902556	      1.11996077	    -11.47029134	      6.08692725	     -5.35141458	     -8.62554833	     -1.83674741	     -2.73438544	    -42.30273242	    -31.69174370	    -57.09160163	     88.41007848	    110.82269659	    -24.40235803	    -49.85382492	    -41.72536965	    110.10558306	    102.85172603
      1.11000000	    -13.85312103	      4.47368759	      3.83336469	     -0.59794320	      1.53787407	     -0.56935004	     20.90846765	     -4.23334941	     -8.95960904	     20.73875802	      0.36195961	    -32.83648096	     -3.45000289	     -5.37650488	     30.30804430	      1.30443771	     -6.55506113	     67.17590218	      1.17244067	    -10.41774122	      5.71364637	     -5.37650488	     -9.14997978	     -2.28536957	     -2.78542362	    -43.68890991	    -31.42322619	    -57.09202777	     85.50498292	    110.64306486	    -25.10556753	    -49.14863635	    -42.34010746	    107.80195548	    102.74143967
      1.12000000	    -14.00904876	      4.70214643	      4.12504131	     -0.58953303	      1.53619793	     -0.56839026	     21.37986239	     -4.44245661	     -9.54379565	     19.69245461	      0.34369817	    -33.30945451	     -3.89634421	     -5.52534379	     32.06074956	      1.25823479	     -6.88981992	     70.14804003	      1.22431426	     -9.30816693	      5.82194379	     -5.52534379	     -9.61307403	     -2.68363605	     -3.37284223	    -44.60714150	    -31.64787635	    -56.31677736	     82.57505078	    110.42315523	    -26.93687382	    -48.23822498	    -44.13376830	    105.89146433	    103.43479109
      1.13000000	    -14.09312146	      5.00390681	      4.44401752	     -0.58105027	      1.53372689	     -0.56758155	     21.75120187	     -4.76789211	    -10.14178957	     18.65663002	      0.32561962	    -33.45625986	     -3.90711804	     -5.54408804	     33.67619867	      1.35743560	     -7.19411070	     72.87867259	      1.27197279	     -8.64963398	      5.32323223	     -5.54408804	    -10.10777029	     -3.07159617	     -3.57410223	    -45.93266947	    -31.43040197	    -56.15476312	     79.96360943	    110.26650290	    -27.68065324	    -47.66891868	    -44.64770077	    103.64270710	    103.27038528
      1.14000000	    -14.25573518	      5.36141474	      4.69705106	     -0.57258830	      1.53003456	     -0.56672915	     22.23847612	     -5.13107752	    -10.58191143	     17.64399163	      0.30794575	    -33.77356526	     -4.11624228	     -5.56113315	     35.34825277	      1.50435326	     -7.52994833	     75.44110293	      1.31669564	     -7.96459926	      4.83831788	     -5.56113315	    -10.50324440	     -3.53269598	     -3.75196803	    -47.29572511	    -31.26674838	    -55.90663435	     77.57281813	    110.16370013	    -28.65167852	    -47.24978140	    -45.19717387	    101.52607226	    103.11312088
      1.15000000	    -14.59011752	      5.70417627	      4.93521595	     -0.56412022	      1.52503863	     -0.56587667	     22.95542185	     -5.47900719	    -10.84497887	     16.69887897	      0.29145042	    -34.38488690	     -4.55164702	     -5.59633755	     37.15800632	      1.63951550	     -7.84994697	     77.74569743	      1.35691840	     -7.28039772	      4.30999936	     -5.59633755	    -10.69082986	     -4.02223665	     -3.98684103	    -48.68049010	    -31.15136929	    -55.40661305	     75.25811742	    110.09619376	    -30.04829350	    -46.89454559	    -45.98824670	     99.76045986	    102.99662137
      1.16000000	    -14.92319382	      6.10343032	      5.14685955	     -0.55572305	      1.51911855	     -0.56507318	     23.69177903	     -5.90892057	    -11.06962941	     15.78893895	      0.27556897	    -34.82065876	     -4.80212015	     -5.64232866	     38.90891282	      1.88574320	     -8.10133995	     79.70777344	      1.39116309	     -6.69427892	      3.91627159	     -5.64232866	    -10.88410946	     -4.56763200	     -4.38409910	    -49.78789458	    -31.08783942	    -55.06896418	     73.26119044	    110.27408690	    -31.77981924	    -46.57716615	    -46.92057566	     98.06572383	    103.02729471
      1.17000000	    -15.28631039	      6.53348508	      5.44440874	     -0.54726415	      1.51221281	     -0.56420954	     24.41784078	     -6.39194569	    -11.27544962	     14.88133197	      0.25972824	    -34.97186457	     -4.84289768	     -5.76989512	     40.58502108	      2.23658189	     -8.23462205	     81.21397047	      1.41745118	     -6.17143704	      3.86156010	     -5.76989512	    -11.07854382	     -5.19639358	     -5.21912273	    -50.47981873	    -31.18775552	    -54.72802639	     71.39874470	    111.08371297	    -34.36854971	    -46.19992953	    -48.59086534	     96.56316107	    103.86203498
      1.18000000	    -15.69821046	      6.93038393	      5.79734064	     -0.53877489	      1.50426432	     -0.56340875	     25.19776283	     -6.89204793	    -11.55724960	     14.03385920	      0.24493705	    -34.94530760	     -4.52930217	     -5.79808379	     42.21153696	      2.60058982	     -8.29695182	     82.23097757	      1.43520131	     -5.90403629	      3.86452289	     -5.79808379	    -11.14247767	     -5.69219696	     -5.47507042	    -51.84556031	    -30.57348332	    -55.34715072	     70.00700289	    110.95278803	    -35.92257805	    -46.39302596	    -48.90123305	     94.96052129	    103.86339282
      1.19000000	    -16.04703988	      7.35468633	      6.13101015	     -0.53010905	      1.49551476	     -0.56253731	     25.89304369	     -7.42076996	    -11.81178687	     13.21288160	      0.23060829	    -34.84399164	     -4.21862630	     -5.82080905	     43.57111177	      2.99225666	     -8.31383917	     82.63284076	      1.44221514	     -5.78963381	      4.10218613	     -5.82080905	    -11.26449996	     -6.19991872	     -5.74802421	    -53.21865183	    -29.87103592	    -56.19909892	     68.95801932	    110.84138414	    -37.70874923	    -46.60276003	    -49.37085305	     93.64815531	    103.88977942
      1.20000000	    -16.35299336	      7.76187366	      6.44827514	     -0.52124131	      1.48595136	     -0.56158127	     26.49796742	     -7.93135377	    -12.06457965	     12.36176764	      0.21575355	    -34.72603084	     -3.86401759	     -5.83607719	     44.66991211	      3.35953334	     -8.30131907	     82.37363194	      1.43769109	     -5.83702056	      4.37996513	     -5.83607719	    -11.40677460	     -6.66413997	     -6.00650119	    -54.65592015	    -29.05220301	    -57.22923597	     68.29678836	    110.73127760	    -39.63204336	    -46.78314246	    -49.94471874	     92.64625537	    103.89890408
      1.21000000	    -16.69936758	      8.20233149	      6.68635609	     -0.51223538	      1.47535959	     -0.56050632	     27.21000918	     -8.50515534	    -12.44920254	     11.66856984	      0.20365496	    -34.27320352	     -2.90558133	     -5.90302624	     45.58637844	      3.65915060	     -8.42693741	     81.43062023	      1.42123243	     -6.22388606	      4.77609127	     -5.90302624	    -11.53681531	     -7.25236503	     -6.72170679	    -55.64430015	    -28.58456657	    -58.08621562	     67.93604095	    111.41054206	    -42.68571889	    -46.32508209	    -51.91389382	     92.27425070	    105.30609971
      1.22000000	    -16.95787114	      8.61512346	      6.83317222	     -0.50318862	      1.46406197	     -0.55954596	     27.81370935	     -8.98775620	    -12.50728938	     10.90436182	      0.19031702	    -34.30179010	     -2.60329472	     -5.92567432	     46.13513583	      3.95567753	     -8.48648764	     79.69631315	      1.39096307	     -6.96071467	      5.20481273	     -5.92567432	    -11.69673089	     -7.66141824	     -6.92390671	    -57.12141483	    -27.60250934	    -59.67683725	     68.13910760	    111.45415635	    -44.94934859	    -46.17840320	    -52.92450665	     92.00771370	    105.71793761
      1.23000000	    -17.10625059	      8.95225490	      6.96003664	     -0.49387899	      1.45205879	     -0.55864221	     28.22502845	     -9.38586392	    -12.63007533	     10.02503193	      0.17496981	    -34.44317772	     -2.19143455	     -5.93497914	     46.30467669	      4.20098805	     -8.46942703	     77.26588479	      1.34854409	     -7.76941580	      5.61873210	     -5.93497914	    -11.92285228	     -7.95829130	     -7.09300420	    -58.67701892	    -26.58023169	    -61.26956728	     68.60285587	    111.51631526	    -47.36124271	    -45.99291129	    -53.90238143	     92.04801032	    106.04589805
      1.24000000	    -17.16851361	      9.34573290	      6.97845477	     -0.48436568	      1.43930626	     -0.55786935	     28.61254835	     -9.85957785	    -12.92354208	      9.31114436	      0.16251013	    -33.96730105	     -1.21922972	     -6.00331975	     46.06110216	      4.50880433	     -8.54363889	     74.06390393	      1.29265898	     -8.87801075	      5.16970693	     -6.00331975	    -12.31338901	     -8.42007059	     -7.97462006	    -59.61582778	    -26.36010403	    -62.24017876	     69.21085917	    111.52801770	    -50.96011849	    -44.57514322	    -56.75272522	     92.86331132	    107.49966275
      1.25000000	    -17.26666583	      9.42941905	      6.98239184	     -0.47469466	      1.42548443	     -0.55719567	     28.89535001	     -9.97523035	    -13.08431827	      8.30216316	      0.14490008	    -34.17602343	     -0.99293625	     -6.00928537	     45.65491959	      4.58798696	     -8.31672005	     70.31568510	      1.22724022	     -9.31256237	      5.43601422	     -6.00928537	    -12.42665832	     -8.35010152	     -7.88516380	    -61.45612688	    -25.30706486	    -63.88381694	     70.14791383	    111.56658538	    -53.24000940	    -44.07652560	    -57.66346189	     93.35290234	    107.78972100
      1.26000000	    -17.19501523	      9.66235870	      6.75313199	     -0.46484608	      1.41096078	     -0.55656702	     29.13253442	    -10.20718954	    -13.25409356	      7.52683540	      0.13136806	    -33.99830817	     -0.47813495	     -6.03474532	     44.72545109	      4.71866254	     -8.28411511	     65.81286587	      1.14865120	    -10.06979229	      5.39349800	     -6.03474532	    -12.74847158	     -8.41241418	     -7.98814966	    -63.00438170	    -24.53173004	    -65.55059242	     71.50613131	    111.36149580	    -55.85003109	    -42.88236781	    -59.30070029	     94.04580298	    108.06979069
